inDegrees=no
num_controls=7
num_derivatives=13
num_iterations=112
num_multipliers=7
num_parameters=0
num_slacks=7
num_states=26
objective=5.738646
objective_accelerations=0.748015
objective_balance=0.045064
objective_effort=0.265339
objective_height=4.591264
objective_ligament=0.088964
solver_duration=1254.895423
status=Solve_Succeeded
success=true
DataType=double
version=3
OpenSimVersion=4.4-2022-07-23-0e9fedc
endheader
time	/jointset/ground_pelvis/pelvis_tilt/value	/jointset/ground_pelvis/pelvis_tx/value	/jointset/ground_pelvis/pelvis_ty/value	/jointset/hip_l/hip_flexion_l/value	/jointset/hip_l/hip_adduction_l/value	/jointset/hip_l/hip_rotation_l/value	/jointset/back/lumbar_extension/value	/jointset/patellofemoral_l/patellar_flexion_l/value	/jointset/knee_l/knee_flexion_l/value	/jointset/knee_l/knee_adduction_l/value	/jointset/knee_l/knee_rotation_l/value	/jointset/ankle_l/ankle_angle_l/value	/jointset/subtalar_l/subtalar_angle_l/value	/jointset/ground_pelvis/pelvis_tilt/speed	/jointset/ground_pelvis/pelvis_tx/speed	/jointset/ground_pelvis/pelvis_ty/speed	/jointset/hip_l/hip_flexion_l/speed	/jointset/hip_l/hip_adduction_l/speed	/jointset/hip_l/hip_rotation_l/speed	/jointset/back/lumbar_extension/speed	/jointset/patellofemoral_l/patellar_flexion_l/speed	/jointset/knee_l/knee_flexion_l/speed	/jointset/knee_l/knee_adduction_l/speed	/jointset/knee_l/knee_rotation_l/speed	/jointset/ankle_l/ankle_angle_l/speed	/jointset/subtalar_l/subtalar_angle_l/speed	/forceset/tau_hip_flexion_l	/forceset/tau_hip_adduction_l	/forceset/tau_hip_rotation_l	/forceset/tau_knee_flexion_l	/forceset/tau_ankle_angle_l	/forceset/tau_subtalar_angle_l	/forceset/tau_lumbar_extension	lambda_cid13_p0	lambda_cid13_p1	lambda_cid13_p2	lambda_cid13_p3	lambda_cid13_p4	lambda_cid13_p5	lambda_cid14_p0	/jointset/ground_pelvis/pelvis_tilt/accel	/jointset/ground_pelvis/pelvis_tx/accel	/jointset/ground_pelvis/pelvis_ty/accel	/jointset/hip_l/hip_flexion_l/accel	/jointset/hip_l/hip_adduction_l/accel	/jointset/hip_l/hip_rotation_l/accel	/jointset/back/lumbar_extension/accel	/jointset/patellofemoral_l/patellar_flexion_l/accel	/jointset/knee_l/knee_flexion_l/accel	/jointset/knee_l/knee_adduction_l/accel	/jointset/knee_l/knee_rotation_l/accel	/jointset/ankle_l/ankle_angle_l/accel	/jointset/subtalar_l/subtalar_angle_l/accel	gamma_cid13_p0	gamma_cid13_p1	gamma_cid13_p2	gamma_cid13_p3	gamma_cid13_p4	gamma_cid13_p5	gamma_cid14_p0
0	-0.04169416455691184	0.06987336450557478	0.896038710856968	0.1955292361009247	-0.3210772469798544	-0.5017771879843502	-0.137903700187828	0.07015350928392543	0.07015350928391206	-0.1745327846531584	-0.1353266502364629	-0.06701017130107029	0.005026599677337927	0	0	0	0	0	0	0	0	0	0	0	0	0	0.1081522929919974	-0.1221945569193497	-0.03691010657770033	-0.2622267354859769	0.2465555042972218	-0.01267979636442033	-0.04891684453383724	43.9368874150793	-5.227228238771286	3.971037157545178	-24.46256343070276	-515.0558368902401	-85.62621586097364	-40.3941016585856	-3.278420429588474	-1.079648690961305	-0.8854379269756986	10.96510286294713	-2.366815757912847	3.757407160344889	-2.663266197762438	11.48275622395987	11.48275622394604	1.066772267097218	-0.7495914744317304	4.066390864065709	-0.3784720259757275	-3.424488818908436e-08	1.677620098950727e-07	1.396197551880016e-07	1.37329027194421e-08	-1.277690213952443e-09	-7.594523155704541e-08	2.71108243923312e-10
0.01	-0.04184959934765636	0.06982129771500979	0.895995832289704	0.1960574691639494	-0.321193604086159	-0.5015872954905445	-0.1380422217836504	0.07071176916973662	0.07071176916966407	-0.1744829519108061	-0.1353561006022623	-0.06681145862650013	0.005007280689958225	-0.03100413217655376	-0.01025870839626393	-0.008546924399398432	0.1051009619782166	-0.0231607158009954	0.037832937370496	-0.0274440844005149	0.1111423266258629	0.1111423266258141	0.009917874050874995	-0.005816763405902098	0.03969347384478546	-0.003770389880451275	0.1077129853486547	-0.1309456020139222	-0.03714757085779408	-0.2650449399032266	0.2476463519995273	-0.005356296671190693	-0.04797637143625989	44.52755649805061	-8.229548710451375	4.127921927374039	-26.44623631835532	-516.2118759687353	-92.11144287359697	-40.40505618460787	-2.999001631943485	-0.9757817104682064	-0.8350015939507572	10.20072915357725	-2.274140202721477	3.774389995519036	-2.745944346100963	10.85352324993164	10.85352324993374	0.9470410876888753	-0.4867121347132648	3.913468394273717	-0.3623538005117741	-9.40809764545915e-08	2.093882989348897e-07	2.563606269359064e-07	6.970114645376342e-08	-2.693282408053598e-07	-1.590761682803175e-07	-8.362164339425743e-09
0.02	-0.04231259386421129	0.06967128388117966	0.8958683480989414	0.1976203391043762	-0.3215382564927781	-0.5010234430289611	-0.1384473771804598	0.07236616279524463	0.07236616279524088	-0.1743353912052925	-0.1354415172745708	-0.06621728266356317	0.004953051537487889	-0.06151194516321438	-0.01958940865302688	-0.01692112469970532	0.2069273754891965	-0.04565906006313069	0.07479199354564947	-0.05332676019718151	0.2192267479730105	0.2192267479730098	0.01954559264597075	-0.0111932612535472	0.07909265767313253	-0.006982033018183943	0.1072736777046086	-0.139696647108543	-0.03738503513664952	-0.2678631443211188	0.2487371997016221	0.001967203021858004	-0.04703589833904399	45.1904125303388	-11.24706484856889	4.290151444509918	-28.66978778168475	-516.3465456210998	-98.40472526925399	-40.43718566866062	-3.179156591609575	-0.894047063061322	-0.8508931071573889	10.31019316949977	-2.234341450140847	3.582630921276385	-2.350984476992622	10.87117516821688	10.87117516822244	1.008741175941323	-0.6615383627803955	4.007532860777813	-0.2667226774321529	-1.539170647200986e-07	2.510145879747067e-07	3.731014986838112e-07	1.256693901880847e-07	-5.373787913967671e-07	-2.422071050035897e-07	-1.69954369227748e-08
0.03	-0.04307769933712764	0.06943112480505921	0.8956576468911986	0.2001870850932226	-0.3221043218231514	-0.500095247772075	-0.139103451949622	0.07508692318220525	0.07508692318224088	-0.1740925944981684	-0.135579851744691	-0.06523209751647266	0.004868938895620225	-0.09132735605576353	-0.0284335507045703	-0.02521604467185985	0.3059833729236312	-0.06741540717520161	0.110691659837507	-0.07767005988212831	0.3244287148844547	0.3244287148844588	0.02898811811683946	-0.0164359767822382	0.1177213653942973	-0.009814041058582263	0.1010417916238452	-0.1308359357837781	-0.03594096519268283	-0.2585440404419368	0.237199156090122	0.0005811918528954242	-0.04219039264527957	41.44518422787944	-10.22760255437966	4.399753029682167	-25.9355552673336	-516.2995228628905	-95.67192913887611	-40.48901342408046	-2.855481783973707	-0.8782440368698258	-0.8184391744917071	9.637509016031972	-2.125569857859644	3.570278318594926	-2.44328265084167	10.27021870532478	10.27021870532183	0.9082531427635163	-0.4499472922547045	3.757084283280899	-0.2875530335603369	-1.873470863857838e-07	2.746336422463145e-07	4.462435865054049e-07	1.556040752443116e-07	-7.12605782317884e-07	-3.011656264494295e-07	-2.040205883541023e-08
0.04	-0.04413550860814321	0.06910279505628834	0.8953640669372877	0.2037312322535452	-0.3228838083278713	-0.4988127270851848	-0.139996415702945	0.07884480548890908	0.07884480548890969	-0.1737561235542152	-0.1357694751988348	-0.06386731638107111	0.004757283540105578	-0.1200527047841885	-0.03722354318311018	-0.03349687393335064	0.4024076097826839	-0.08834329493205204	0.1456570795475518	-0.1007045570308692	0.4266511319045777	0.4266511319045584	0.03828043999184701	-0.02145105808459497	0.1550118553352753	-0.01249057574765161	0.09480990554324907	-0.121975224459069	-0.03449689524937858	-0.2492249365624885	0.2256611124786927	-0.0008048193160812418	-0.03734488695142348	37.76715824305811	-9.217545717192611	4.508159032172777	-23.4260752410176	-515.313644194041	-92.75394237739073	-40.55877388551258	-2.961144158784503	-0.8832171484608489	-0.8480749650246396	9.783841054423329	-2.068649579096743	3.395781604913827	-2.089223969751302	10.27526518995268	10.27526518995263	0.9787004567690895	-0.6160115175136176	3.739889304740231	-0.2356280071664914	-2.202326530700293e-07	2.978814133268252e-07	5.184867303285179e-07	1.850019858948046e-07	-8.859188854107476e-07	-3.596257475802707e-07	-2.370091475483507e-08
0.05	-0.04547606719861647	0.06868722842178193	0.8949874693569344	0.2082275302413641	-0.3238684761857109	-0.497185581560236	-0.1411125096117131	0.08361089225095224	0.0836108922509463	-0.1733274964592938	-0.1360086918380976	-0.06213553739076566	0.004620006845887774	-0.1479009957073889	-0.04583849944241846	-0.04183702375537014	0.4963876741974689	-0.1084462713934175	0.1796188158652653	-0.1223022839286659	0.5260584180893819	0.5260584180893687	0.04739770256861235	-0.02633944772984762	0.1911623717021396	-0.01491132247932438	0.08989958482067559	-0.1182715917816129	-0.03346724891529046	-0.2439236079670035	0.2176008260121205	0.0006435949051932045	-0.03344614515295274	35.2964824737838	-9.494405931609442	4.64414660788853	-22.15293881795849	-514.6322087180091	-92.71547677369141	-40.64421884689478	-2.672987242822788	-0.8429049860126073	-0.8293208177821443	9.135408982041559	-1.959620975400692	3.373321373424241	-2.163255930101982	9.697294737972804	9.697294737973733	0.8712634084889319	-0.4172667818096017	3.525390353992508	-0.2373866634136905	-2.407632862801812e-07	2.751204270364138e-07	5.65841859642832e-07	2.003106016658912e-07	-1.000854458357676e-06	-4.034924225617989e-07	-2.930834045149325e-08
0.06	-0.04709037183506626	0.06818705820041233	0.8945270031129642	0.2136496928427244	-0.3250498736673124	-0.4952234283264504	-0.1424382225655193	0.08935581875586293	0.08935581875586425	-0.1728090918885135	-0.1362951951926043	-0.06004770172652472	0.004460104952904138	-0.1748019139799562	-0.05414426055574753	-0.0502706066567102	0.5875805324936699	-0.1276892196845505	0.2126586213119369	-0.142628366038745	0.6224190804833325	0.6224190804833256	0.0562359351597069	-0.03090840112624527	0.2262231901223264	-0.01701561550084339	0.08498926409789985	-0.1145679591042044	-0.03243760258102237	-0.2386222793716545	0.2095405395454918	0.002092009126383597	-0.02954740335458036	32.88585753195397	-9.781047847437421	4.780857882565607	-21.08246144048496	-513.1075406621799	-92.51273710101084	-40.74277267149546	-2.771669628657643	-0.8213781192652428	-0.8667615808887451	9.226399830706489	-1.896643945050258	3.211395430705463	-1.834895012207639	9.665940431782033	9.665940431782012	0.9228944596349383	-0.5521242677426882	3.521949715404505	-0.1723372651358682	-2.607737117651081e-07	2.504222299093319e-07	6.121490725567755e-07	2.150259839683712e-07	-1.113332030035301e-06	-4.467446366528297e-07	-3.501296908614021e-08
0.07000000000000001	-0.04896967434960862	0.06760533134868053	0.8939814807277485	0.2199713770111124	-0.326419458915573	-0.4929360570175843	-0.1439601745912628	0.09605029855136517	0.096050298551369	-0.1722035616620692	-0.1366267685395972	-0.05761431509370289	0.004280886539504301	-0.200898451229667	-0.06215062216605945	-0.05886288880815879	0.6763008708906362	-0.1460777112554703	0.2446642149090658	-0.1615604513075226	0.7159719000919784	0.7159719000920044	0.06481546050974274	-0.03535180471156768	0.260268903402213	-0.01877105914257127	0.0798056928512377	-0.1099451636617358	-0.03136841307252632	-0.2336121585726731	0.201716600149744	0.002932541744227194	-0.02549317731748984	30.50556616057121	-9.827064379826927	4.899842037900344	-19.84364529698425	-511.864499690064	-91.76470874388983	-40.85154878171489	-2.504639809400288	-0.7826488552962145	-0.8600383252974093	8.626503247683678	-1.787535894130989	3.172343837973437	-1.892127113209361	9.124213018443029	9.124213018447968	0.8174028260125542	-0.3821977232851061	3.318087613023443	-0.1687039395373301	-2.692293421824785e-07	1.940733945080953e-07	6.376919207042454e-07	2.154130830770384e-07	-1.165578282523222e-06	-4.778839362171037e-07	-4.198292919800186e-08
0.08	-0.05110514104391035	0.06694506414616852	0.8933491201624144	0.227166595044157	-0.3279684459057434	-0.4903331892699911	-0.1456653998354956	0.1036651586015669	0.1036651586015678	-0.1715138519314385	-0.1370011257863046	-0.05484603023233355	0.00408580248451776	-0.2260347499302391	-0.06985233071178493	-0.06763824268043228	0.7622873054272751	-0.1635695680671171	0.2757579090564636	-0.1792830097361203	0.8064951314221124	0.8064951314221716	0.07307183599275642	-0.03946518107122134	0.2932028358318076	-0.0201887438181446	0.07462212160450744	-0.1053223682192843	-0.03029922356409943	-0.2286020377736994	0.1938926607539901	0.00377307436204973	-0.02143895128044816	28.17874394662726	-9.880251376533856	5.017466880060541	-18.78314657481526	-509.871842775622	-90.87034777975484	-40.96746808674384	-2.579621918829647	-0.7604475063481824	-0.9033759250537178	8.679619058641004	-1.717316993195675	3.029015540759238	-1.592989644171454	9.060022776079666	9.060022776079743	0.8582644862305129	-0.4861188226090015	3.299593545345855	-0.1047854719050797	-2.76939501950329e-07	1.356825824440101e-07	6.618951324151685e-07	2.148757768183628e-07	-1.213938643450516e-06	-5.082417574248129e-07	-4.903452359871605e-08
